<svg xmlns="http://www.w3.org/2000/svg" xmlns:xlink="http://www.w3.org/1999/xlink" viewBox="0 0 743 392.93"><defs><style>.cls-1{fill:#fff;}.cls-2{fill:#cdd0e0;}.cls-3{fill:#e1e4ee;}.cls-4{fill:#271f3e;}.cls-5{fill:url(#linear-gradient);}.cls-6{fill:none;}.cls-7{fill:#5e4b8b;}.cls-8{fill:#8fb2ae;}.cls-9{fill:#7379ba;}.cls-10{fill:url(#linear-gradient-2);}</style><linearGradient id="linear-gradient" x1="257.08" y1="309.01" x2="485.92" y2="80.18" gradientUnits="userSpaceOnUse"><stop offset="0" stop-color="#69cef4"/><stop offset="1" stop-color="#7379ba"/></linearGradient><linearGradient id="linear-gradient-2" x1="178.62" y1="277.99" x2="258.96" y2="197.64" xlink:href="#linear-gradient"/></defs><title>Asset 1</title><g id="Layer_2" data-name="Layer 2"><g id="Layer_1-2" data-name="Layer 1"><g id="Workspace3"><path class="cls-1" d="M595.66,88.78a50.25,50.25,0,1,1-50.24-50.25A50.24,50.24,0,0,1,595.66,88.78Z"/><path class="cls-2" d="M545.42,140.52a51.75,51.75,0,1,1,51.74-51.74A51.8,51.8,0,0,1,545.42,140.52Zm0-100.49a48.75,48.75,0,1,0,48.74,48.75A48.81,48.81,0,0,0,545.42,40Z"/><path class="cls-3" d="M578.86,88.78a33.44,33.44,0,1,1-33.44-33.44A33.45,33.45,0,0,1,578.86,88.78Z"/><path class="cls-2" d="M545.42,123.72a34.94,34.94,0,1,1,34.94-34.94A35,35,0,0,1,545.42,123.72Zm0-66.88a31.94,31.94,0,1,0,31.94,31.94A32,32,0,0,0,545.42,56.84Z"/><path class="cls-2" d="M546.46,90.93a1.5,1.5,0,0,1-1.5,1.5h0a1.5,1.5,0,0,1-1.5-1.5V67.43a1.5,1.5,0,0,1,1.5-1.5h0a1.5,1.5,0,0,1,1.5,1.5Z"/><path class="cls-2" d="M561.09,89.68a1.37,1.37,0,0,1,1.37,1.37h0a1.37,1.37,0,0,1-1.37,1.38H544.84a1.38,1.38,0,0,1-1.38-1.38h0a1.37,1.37,0,0,1,1.38-1.37Z"/><polygon class="cls-1" points="117.03 391.43 99.03 391.43 96.03 325.43 120.03 325.43 117.03 391.43"/><path class="cls-2" d="M118.46,392.93H97.6l-3.14-69H121.6Zm-18-3H115.6l2.86-63H97.6Z"/><polygon class="cls-2" points="96.03 328.43 97.21 354.43 118.85 354.43 120.03 328.43 96.03 328.43"/><polygon class="cls-1" points="644.03 391.43 626.03 391.43 623.03 325.43 647.03 325.43 644.03 391.43"/><path class="cls-2" d="M645.46,392.93H624.6l-3.14-69H648.6Zm-18-3H642.6l2.86-63H624.6Z"/><polygon class="cls-2" points="623.03 328.43 624.21 354.43 645.85 354.43 647.03 328.43 623.03 328.43"/><rect class="cls-1" x="1.5" y="312.43" width="740" height="26"/><path class="cls-2" d="M743,339.93H0v-29H743Zm-740-3H740v-23H3Z"/><rect class="cls-4" x="210.5" y="93.43" width="322" height="208" rx="20" ry="20"/><path class="cls-2" d="M512.5,302.93h-282a21.53,21.53,0,0,1-21.5-21.5v-168a21.52,21.52,0,0,1,21.5-21.5h282a21.52,21.52,0,0,1,21.5,21.5v168A21.52,21.52,0,0,1,512.5,302.93Zm-282-208a18.52,18.52,0,0,0-18.5,18.5v168a18.52,18.52,0,0,0,18.5,18.5h282a18.52,18.52,0,0,0,18.5-18.5v-168a18.52,18.52,0,0,0-18.5-18.5Z"/><rect class="cls-5" x="224.5" y="112.76" width="294" height="163.67"/><path class="cls-2" d="M520,277.93H223V111.26H520Zm-294-3H517V114.26H226Z"/><polygon class="cls-1" points="574.25 306.43 555.25 311.43 187.25 311.43 168.25 306.43 168.25 294.43 574.25 294.43 574.25 306.43"/><path class="cls-2" d="M555.44,312.93l-368.57-.05-20.12-5.3V292.93h409v14.65Zm-368-3H555.06l17.69-4.66v-9.34h-403v9.34Z"/><polygon class="cls-2" points="169.25 305.43 187.25 311.43 555.25 311.43 574.75 305.43 169.25 305.43"/><path class="cls-2" d="M404.69,296.59c0,1.52-.62,2.75-1.37,2.75H339.69c-.76,0-1.38-1.23-1.38-2.75h0c0-1.51.62-2.75,1.38-2.75h63.63c.75,0,1.37,1.24,1.37,2.75Z"/><path class="cls-1" d="M607.69,245.52v47a20,20,0,0,0,20,20h56a20,20,0,0,0,20-20v-47a19.05,19.05,0,0,0-.1-2H607.79A19.05,19.05,0,0,0,607.69,245.52Z"/><path class="cls-2" d="M684.18,314h-56a21.52,21.52,0,0,1-21.5-21.5v-47a19.78,19.78,0,0,1,.11-2.16l.13-1.35h98.51l.14,1.35c.07.73.1,1.45.1,2.16v47A21.52,21.52,0,0,1,684.18,314ZM609.7,245c0,.17,0,.34,0,.51v47a18.52,18.52,0,0,0,18.5,18.5h56a18.52,18.52,0,0,0,18.5-18.5V245Z"/><path class="cls-6" d="M710.26,283.42a9.34,9.34,0,1,0-6-16.48v14.29A9.3,9.3,0,0,0,710.26,283.42Z"/><path class="cls-1" d="M710.26,255.42a18.6,18.6,0,0,0-6,1v10.52a9.34,9.34,0,1,1,0,14.29v10.52a18.66,18.66,0,1,0,6-36.33Z"/><path class="cls-2" d="M710.26,294.25a20,20,0,0,1-6.48-1.08l-1-.35V278l2.46,2.07a7.84,7.84,0,1,0,0-12l-2.46,2.07V255.35l1-.35a20.16,20.16,0,1,1,6.48,39.25Zm-4.5-3.61a17.16,17.16,0,1,0,4.5-33.72,16.83,16.83,0,0,0-4.5.61v6.7a10.83,10.83,0,1,1,4.5,20.69,10.7,10.7,0,0,1-4.5-1Z"/><path class="cls-7" d="M637.29,243.67l-3.65-49.84a5,5,0,0,0-10,.73l3.59,49.17Z"/><path class="cls-7" d="M679.92,243.59l3.58-49a5,5,0,0,0-10-.73l-3.64,49.76Z"/><path class="cls-7" d="M650.37,243.62l.68-46.83a5,5,0,0,0-10-.15l-.69,47Z"/><path class="cls-8" d="M645.26,243.65l3.27-27.1a5,5,0,0,0-9.93-1.2l-3.42,28.35Z"/><path class="cls-7" d="M661.53,243.6l5.12-42.46a5,5,0,0,0-9.92-1.2l-5.28,43.68Z"/><path class="cls-8" d="M672.66,243.59l-.23-29.33a5,5,0,0,0-10,.08l.23,29.26Z"/><path class="cls-2" d="M625.87,245.23l-3.7-50.56a6,6,0,0,1,1.62-4.54,6.63,6.63,0,0,1,4.41-2.1,6.37,6.37,0,0,1,6.94,5.69l3.76,51.44h-1.61l-10,.06ZM628.71,191h-.29a3.65,3.65,0,0,0-2.43,1.15,3,3,0,0,0-.83,2.28l3.5,47.77,7,0-3.52-48.24A3.34,3.34,0,0,0,628.71,191Z"/><path class="cls-2" d="M681.31,245.1h-13L672,193.72A6.38,6.38,0,0,1,679,188a6.63,6.63,0,0,1,4.41,2.1,6,6,0,0,1,1.62,4.54Zm-9.68-3h6.89L682,194.45a3,3,0,0,0-.83-2.28,3.65,3.65,0,0,0-2.43-1.15,3.38,3.38,0,0,0-3.73,2.92l-3.52,48.15Z"/><path class="cls-2" d="M638.85,245.16l.71-48.54a6.35,6.35,0,0,1,6.48-6.08h.11a6.64,6.64,0,0,1,4.53,1.84,6,6,0,0,1,1.87,4.43l-.7,48.31h-1.47l-10,0Zm7.25-51.62a3.36,3.36,0,0,0-3.54,3.12l-.67,45.49,7,0,.66-45.35a3,3,0,0,0-.95-2.23,3.66,3.66,0,0,0-2.5-1Z"/><path class="cls-2" d="M649.76,245.12l5.48-45.36a6.35,6.35,0,0,1,7.19-5.35,6.59,6.59,0,0,1,4.32,2.31,6,6,0,0,1,1.39,4.6l-5.28,43.77h-1.33l-10.07,0Zm11.84-47.76a3.3,3.3,0,0,0-3.38,2.76l-5.08,42h7.06l5-41.14a3,3,0,0,0-.72-2.31,3.63,3.63,0,0,0-2.38-1.26A3.71,3.71,0,0,0,661.6,197.36Z"/><path class="cls-9" d="M672.66,243.59l-.23-29.33a5,5,0,0,0-10,.08l.23,29.26Z"/><path class="cls-2" d="M661.17,245.1l-.24-30.75a6,6,0,0,1,1.91-4.42,6.62,6.62,0,0,1,4.54-1.8,6.36,6.36,0,0,1,6.55,6.12l.24,30.84h-13Zm6.27-34a3.63,3.63,0,0,0-2.54,1,3,3,0,0,0-1,2.22l.22,27.77h7l-.22-27.82A3.35,3.35,0,0,0,667.44,211.13Z"/><path class="cls-9" d="M620.76,243.76l10.42-.06-11.84-39.63a5,5,0,0,0-9.58,2.86Z"/><path class="cls-2" d="M620.64,245.27l-11.32-37.91a6,6,0,0,1,.6-4.78,6.65,6.65,0,0,1,3.86-3,6.88,6.88,0,0,1,2-.29,6.21,6.21,0,0,1,6,4.35l12.41,41.54-2,0-10.41.06Zm-4.91-43a4.11,4.11,0,0,0-1.09.16,3.69,3.69,0,0,0-2.13,1.65,3,3,0,0,0-.32,2.4l10.68,35.76,7.3,0L618.9,204.5A3.22,3.22,0,0,0,615.73,202.29Z"/><path class="cls-9" d="M645.26,243.65l3.27-27.1a5,5,0,0,0-9.93-1.2l-3.42,28.35Z"/><path class="cls-2" d="M633.49,245.21l3.62-30a6.36,6.36,0,0,1,7.2-5.35,6.68,6.68,0,0,1,4.31,2.31,6,6,0,0,1,1.4,4.6l-3.43,28.41h-1.33l-10.07,0Zm10-32.44a3.31,3.31,0,0,0-3.39,2.76l-3.22,26.66,7.06,0L647,216.37a3,3,0,0,0-.72-2.31A3.61,3.61,0,0,0,644,212.8Z"/><path class="cls-9" d="M688.46,243.6l10.95-36.67a5,5,0,0,0-9.58-2.86L678,243.59Z"/><path class="cls-2" d="M689.58,245.11H676l12.38-41.45a6.21,6.21,0,0,1,6.05-4.35,6.88,6.88,0,0,1,1.95.29,6.65,6.65,0,0,1,3.86,3,6,6,0,0,1,.6,4.78Zm-9.54-3h7.3L698,206.5a3,3,0,0,0-.32-2.4,3.69,3.69,0,0,0-2.13-1.65,4.11,4.11,0,0,0-1.09-.16,3.22,3.22,0,0,0-3.17,2.21Z"/><rect class="cls-2" x="269.87" y="164" width="70.5" height="3"/><rect class="cls-2" x="269.87" y="224" width="70.5" height="3"/><rect class="cls-2" x="273.62" y="160.25" width="3" height="70.5"/><rect class="cls-2" x="333.62" y="160.25" width="3" height="70.5"/><rect class="cls-2" x="400.87" y="164" width="70.5" height="3"/><rect class="cls-2" x="400.87" y="224" width="70.5" height="3"/><rect class="cls-2" x="404.62" y="160.25" width="3" height="70.5"/><rect class="cls-2" x="464.62" y="160.25" width="3" height="70.5"/><path class="cls-1" d="M305.46,226.83a31.42,31.42,0,1,1,31.41-31.42A31.45,31.45,0,0,1,305.46,226.83Zm0-59.83a28.42,28.42,0,1,0,28.41,28.41A28.45,28.45,0,0,0,305.46,167Z"/><path class="cls-1" d="M305.46,210.87a16.13,16.13,0,1,1,16.12-16.12A16.14,16.14,0,0,1,305.46,210.87Zm0-29.25a13.13,13.13,0,1,0,13.12,13.13A13.14,13.14,0,0,0,305.46,181.62Z"/><path class="cls-1" d="M436.12,165.12a30.42,30.42,0,1,0,30.41,30.42A30.45,30.45,0,0,0,436.12,165.12Zm0,48.09a17.68,17.68,0,1,1,17.67-17.67A17.7,17.7,0,0,1,436.12,213.21Z"/><rect class="cls-4" x="187.42" y="174.21" width="62.74" height="127.65" rx="10.82" ry="10.82"/><path class="cls-2" d="M239.35,303.05H198.24a12,12,0,0,1-12-12V185a12,12,0,0,1,12-12h41.11a12,12,0,0,1,12,12V291A12,12,0,0,1,239.35,303.05ZM198.24,175.41a9.62,9.62,0,0,0-9.62,9.62V291a9.63,9.63,0,0,0,9.62,9.62h41.11A9.64,9.64,0,0,0,249,291V185a9.63,9.63,0,0,0-9.62-9.62Z"/><path class="cls-10" d="M244.63,289.52a7.3,7.3,0,0,1-7.52,7.07H200.47a7.3,7.3,0,0,1-7.51-7.07V186.11a7.3,7.3,0,0,1,7.51-7.07h36.64a7.31,7.31,0,0,1,7.52,7.07Z"/><path class="cls-4" d="M232.57,179.79a2.8,2.8,0,0,1-2.8,2.8h-22a2.8,2.8,0,0,1-2.8-2.8h0a2.8,2.8,0,0,1,2.8-2.8h22a2.8,2.8,0,0,1,2.8,2.8Z"/><path class="cls-1" d="M256.75,302.52a18,18,0,0,0-18-18h-40.5a18,18,0,0,0-15.57,27h71.64A18,18,0,0,0,256.75,302.52Z"/><path class="cls-2" d="M255.18,313H181.81l-.43-.75A19.48,19.48,0,0,1,198.25,283h40.5a19.48,19.48,0,0,1,16.87,29.25Zm-71.61-3h69.86a16.47,16.47,0,0,0-14.68-24h-40.5a16.47,16.47,0,0,0-14.68,24Z"/><rect class="cls-1" x="217.37" y="223.02" width="2.25" height="6"/><rect class="cls-1" x="212.12" y="224.42" width="2.25" height="6" transform="translate(-85.15 137.11) rotate(-30)"/><rect class="cls-1" x="208.28" y="228.27" width="2.25" height="6" transform="translate(-95.56 297.1) rotate(-60.02)"/><rect class="cls-1" x="205" y="235.39" width="6" height="2.25"/><rect class="cls-1" x="206.4" y="240.64" width="6" height="2.25" transform="translate(-92.83 137.11) rotate(-30)"/><rect class="cls-1" x="210.25" y="244.49" width="6" height="2.25" transform="translate(-106.1 307.4) rotate(-59.98)"/><rect class="cls-1" x="217.37" y="244.02" width="2.25" height="6"/><rect class="cls-1" x="222.62" y="242.61" width="2.25" height="6" transform="translate(-92.84 144.82) rotate(-30.01)"/><rect class="cls-1" x="226.47" y="238.77" width="2.25" height="6" transform="translate(-95.55 318.1) rotate(-60.02)"/><rect class="cls-1" x="226" y="235.39" width="6" height="2.25"/><rect class="cls-1" x="224.59" y="230.14" width="6" height="2.25" transform="translate(-85.11 144.67) rotate(-29.98)"/><rect class="cls-1" x="220.75" y="226.3" width="6" height="2.25" transform="translate(-85.06 307.56) rotate(-60.01)"/><rect class="cls-4" x="56.69" y="208.02" width="12" height="97.5"/><path class="cls-2" d="M70.19,307h-15V206.52h15Zm-12-3h9v-94.5h-9Z"/><path class="cls-4" d="M117.44,305.52a5.25,5.25,0,0,1-5.25,5.25h-78a5.25,5.25,0,0,1-5.25-5.25h0a5.25,5.25,0,0,1,5.25-5.25h78a5.25,5.25,0,0,1,5.25,5.25Z"/><path class="cls-2" d="M112.19,312.27h-78a6.75,6.75,0,0,1,0-13.5h78a6.75,6.75,0,0,1,0,13.5Zm-78-10.5a3.75,3.75,0,1,0,0,7.5h78a3.75,3.75,0,0,0,0-7.5Z"/><rect class="cls-2" x="175.67" y="23.78" width="49.52" height="5" transform="translate(69.22 180.06) rotate(-57)"/><rect class="cls-4" x="-11.69" y="146.79" width="260.99" height="13.5" transform="translate(-74.52 171.29) rotate(-57.52)"/><path class="cls-2" d="M54.87,269.32,41,260.46,182.73,37.77l13.92,8.86Zm-9.77-9.78L54,265.17,192.51,47.55l-8.86-5.64Z"/><path class="cls-4" d="M321.18,10.78a9.28,9.28,0,0,1-9.28,9.28H215a9.28,9.28,0,0,1-9.28-9.28h0A9.29,9.29,0,0,1,215,1.5H311.9a9.29,9.29,0,0,1,9.28,9.28Z"/><path class="cls-2" d="M311.9,21.56H215A10.78,10.78,0,0,1,215,0H311.9a10.78,10.78,0,1,1,0,21.56ZM215,3a7.78,7.78,0,0,0,0,15.56H311.9A7.78,7.78,0,1,0,311.9,3Z"/><polygon class="cls-1" points="346.1 191.59 346.1 212.91 351.58 207.43 355.57 215.1 358.46 213.61 354.63 206.21 362.03 206.21 346.1 191.59"/><rect class="cls-1" x="494.22" y="251.45" width="146.16" height="12.04" transform="matrix(0.92, -0.39, 0.39, 0.92, -55.49, 241.74)"/><path class="cls-2" d="M501.86,293.34l-5.61-13.25L633,222.15l5.61,13.24Zm-2.54-12,3.78,8.92,132.42-56.12-3.78-8.92Z"/><path class="cls-4" d="M596.3,252l40.75-17.27-4.69-11.09L591.58,241C593.1,244.52,594.7,248.26,596.3,252Z"/><path class="cls-2" d="M590,240.35,633,222.15l5.61,13.24-42.91,18.19-.46-1.08c-1.6-3.78-3.2-7.52-4.72-11.07Zm41.7-15.13-38.62,16.37,3.8,8.91,38.6-16.36Z"/><rect class="cls-4" x="491.97" y="284.19" width="8.63" height="8.08" transform="translate(-73.14 216.63) rotate(-22.98)"/><path class="cls-2" d="M493.26,295.17l-4.06-9.6,10.1-4.28,4.07,9.6Zm-1-8.35,2.24,5.28,5.78-2.45-2.23-5.29Z"/><rect class="cls-2" x="625.68" y="219.65" width="2.35" height="4.87" transform="translate(-36.97 262.21) rotate(-22.97)"/><rect class="cls-2" x="592.12" y="233.87" width="2.35" height="4.87" transform="translate(-45.18 250.06) rotate(-22.95)"/><rect class="cls-2" x="589.88" y="226.13" width="38.79" height="2.34" transform="translate(-40.38 256.02) rotate(-22.99)"/></g></g></g></svg>